<?xml version="1.0" encoding="utf-8"?>
<svg xmlns="http://www.w3.org/2000/svg" width="1024" height="1024" viewBox="0 0 1024 1024" version="1.1" xmlns:bx="https://boxy-svg.com">
  <defs>
    <bx:export>
      <bx:file format="svg"/>
    </bx:export>
  </defs>
  <g style="" transform="matrix(1.094989, 0, 0, 1.094989, -20.14909, -37.742073)">
    <path d="M 492.291 77.225 C 488.401 84.494 462.077 166.279 460.524 175.921 C 457.813 192.76 458.942 196.771 480.226 245.991 C 486.739 261.054 492.068 274.422 492.068 275.701 C 492.068 279.297 494.911 276.679 496.085 272.002 C 497.18 267.64 508.739 240.055 516.052 224.351 C 530.776 192.73 531.236 185.026 520.457 150.544 C 514.293 130.819 495.464 75.479 494.64 74.653 C 494.291 74.304 493.234 75.462 492.291 77.225 M 415.829 156.367 C 414.14 162.709 414.196 163.173 416.293 160.315 C 417.598 158.534 418.69 157.408 418.715 157.813 C 418.89 160.559 425.131 176.37 425.225 174.305 C 425.288 172.877 423.631 166.642 421.541 160.446 L 417.741 149.18 L 415.829 156.367 M 406.557 176.627 C 403.109 183.198 401.479 187.075 402.937 185.239 C 406.165 181.18 414.096 165.929 413.358 165.2 C 413.068 164.911 410.007 170.055 406.557 176.627 M 425.561 179.401 C 425.518 180.778 426.513 186.033 427.771 191.079 C 429.031 196.125 430.111 198.753 430.172 196.918 C 430.233 195.082 429.236 189.827 427.959 185.239 C 426.684 180.653 425.604 178.025 425.561 179.401 M 388.716 202.338 C 386.592 204.861 382.891 209.178 380.492 211.931 L 376.13 216.935 L 381.703 211.931 C 386.948 207.223 394.643 197.752 393.225 197.752 C 392.87 197.752 390.841 199.817 388.716 202.338 M 350.273 243.079 C 328.643 264.23 327.689 265.343 344.435 249.884 C 364.718 231.159 378.263 217.759 376.886 217.783 C 376.47 217.79 364.494 229.173 350.273 243.079" stroke="none" fill="#edc5fe" fill-rule="evenodd" style=""/>
    <path d="M 434.681 234.821 C 434.219 237.829 433.378 251.55 432.813 265.313 C 432.246 279.076 430.594 296.716 429.145 304.515 C 427.693 312.313 426.432 320.383 426.34 322.447 C 426.251 324.513 425.678 326.201 425.071 326.201 C 423.923 326.201 421.112 338.811 421.444 342.466 C 421.549 343.614 420.99 344.551 420.203 344.551 C 419.417 344.551 419.206 345.677 419.733 347.053 C 420.261 348.43 419.886 349.555 418.899 349.555 C 417.911 349.555 417.584 350.804 418.17 352.332 C 418.839 354.073 418.574 354.699 417.458 354.01 C 415.457 352.772 413.145 357.375 414.592 359.715 C 415.106 360.551 414.69 361.234 413.664 361.234 C 412.638 361.234 412.262 361.984 412.83 362.902 C 413.396 363.819 413.022 364.57 411.996 364.57 C 410.97 364.57 410.594 365.32 411.162 366.238 C 411.728 367.156 411.354 367.906 410.328 367.906 C 409.302 367.906 408.926 368.657 409.494 369.574 C 410.06 370.492 409.603 371.242 408.479 371.242 C 407.355 371.242 406.925 371.731 407.522 372.328 C 408.119 372.925 407.304 374.484 405.713 375.789 C 404.123 377.094 403.76 377.687 404.906 377.106 C 408.416 375.329 407.236 377.842 402.403 382.437 C 399.881 384.838 398.942 386.144 400.319 385.341 C 404.043 383.17 397.751 392.78 392.227 397.699 C 389.795 399.865 388.822 401.086 390.066 400.414 C 391.593 399.585 391.399 400.604 389.457 403.567 C 386.706 407.766 383.846 409.982 386.297 406.015 C 387.041 404.813 386.755 404.544 385.535 405.298 C 384.46 405.962 383.945 407.093 384.39 407.812 C 384.834 408.531 384.04 410.543 382.626 412.285 C 381.211 414.024 380.6 414.395 381.267 413.105 C 382.075 411.552 381.827 411.171 380.53 411.971 C 379.456 412.635 378.976 413.823 379.462 414.61 C 379.95 415.397 378.366 418.159 375.947 420.751 C 373.523 423.34 372.574 423.957 373.836 422.122 C 375.94 419.061 375.889 418.974 373.229 421.059 C 371.634 422.31 370.744 424.005 371.25 424.826 C 371.757 425.647 368.557 429.911 364.142 434.302 C 359.491 438.929 358.218 439.799 361.116 436.377 L 366.121 430.463 L 359.933 436.144 C 354.479 441.154 353.393 441.56 350.759 439.563 C 345.811 435.809 350.257 440.026 367.439 455.373 C 381.044 467.527 384.184 469.62 386.246 467.908 C 389.634 465.095 391.299 467.231 388.559 470.876 C 387.336 472.504 391.358 468.957 397.497 462.993 C 403.636 457.029 409.341 452.315 410.175 452.515 C 411.008 452.716 411.49 451.048 411.243 448.808 C 410.998 446.567 411.36 445.082 412.049 445.51 C 412.736 445.935 416.181 443.099 419.699 439.208 C 423.219 435.316 426.678 432.318 427.388 432.547 C 428.097 432.776 428.489 432.295 428.261 431.474 C 427.683 429.409 447.486 399.688 448.869 400.542 C 449.484 400.923 449.883 400.304 449.758 399.166 C 449.406 395.984 462.453 371.299 463.986 372.248 C 464.731 372.707 464.845 371.797 464.241 370.221 C 463.502 368.291 463.773 367.747 465.075 368.553 C 466.377 369.358 466.648 368.814 465.909 366.885 C 465.124 364.84 465.414 364.396 466.929 365.332 C 468.617 366.375 468.645 365.889 467.063 362.931 C 465.971 360.893 465.451 357.798 465.906 356.055 C 466.416 354.107 466.059 353.305 464.981 353.972 C 463.854 354.667 463.524 353.491 464.062 350.688 C 464.58 347.983 464.252 346.718 463.205 347.366 C 462.169 348.005 461.879 347.015 462.457 344.809 C 463.054 342.528 462.757 341.607 461.645 342.295 C 460.52 342.99 460.187 341.822 460.719 339.043 C 461.174 336.657 461.096 334.759 460.542 334.823 C 457.437 335.177 456.87 334.252 458.783 331.946 C 459.968 330.518 460.248 329.481 459.404 329.641 C 455.981 330.292 455.338 329.376 457.017 326.24 C 458.489 323.487 458.328 323.113 456.047 323.989 C 453.674 324.9 453.58 324.538 455.339 321.249 C 456.951 318.239 456.942 317.722 455.293 318.741 C 453.774 319.68 453.44 318.853 454.052 315.656 C 454.563 312.985 454.239 311.69 453.218 312.32 C 452.194 312.953 451.877 311.638 452.396 308.919 C 453.084 305.318 452.817 304.84 450.969 306.373 C 449.184 307.855 448.695 307.571 448.695 305.053 C 448.695 303.288 449.635 300.793 450.781 299.508 C 452.554 297.519 452.431 297.499 449.947 299.379 C 447.413 301.295 447.028 301.163 447.028 298.379 C 447.028 296.616 447.966 294.162 449.114 292.926 C 450.812 291.096 450.68 290.859 448.408 291.657 C 444.586 292.996 442.305 280.699 445.619 276.62 C 447.551 274.244 447.481 274.006 445.114 274.892 C 442.895 275.722 442.143 274.428 441.204 268.165 C 440.438 263.066 440.665 260.204 441.866 259.804 C 442.87 259.469 443.691 258.428 443.691 257.489 C 443.691 256.55 442.565 256.212 441.188 256.742 C 439.487 257.394 438.686 256.651 438.686 254.418 C 438.686 252.611 439.482 251.133 440.452 251.133 C 441.424 251.133 441.747 250.371 441.171 249.438 C 440.595 248.506 439.425 248.174 438.571 248.702 C 437.717 249.229 437.018 248.179 437.018 246.365 C 437.018 244.553 437.957 242.692 439.104 242.228 C 440.35 241.726 440.012 241.335 438.27 241.256 C 435.017 241.109 434.326 236.143 437.164 233.305 C 438.403 232.066 438.43 231.153 437.248 230.423 C 436.236 229.797 435.17 231.624 434.681 234.821 M 551.531 236.953 C 548.918 253.839 548.739 254.345 545.757 253.228 C 543.346 252.325 543.261 252.562 545.153 254.886 C 548.437 258.93 546.119 272.904 542.358 271.71 C 540.177 271.016 540.085 271.175 541.917 272.48 C 543.541 273.637 543.892 275.876 543.106 280.068 C 542.231 284.74 541.38 285.798 539.133 285.009 C 536.802 284.192 536.66 284.42 538.361 286.254 C 541.346 289.472 540.931 292.816 537.528 292.969 C 535.783 293.048 535.445 293.44 536.692 293.942 C 540.089 295.313 539.266 300.054 535.857 298.757 C 533.518 297.865 533.352 298.061 535.023 299.746 C 538 302.743 537.601 306.183 534.273 306.183 C 532.067 306.183 531.882 306.628 533.439 308.185 C 536.252 310.997 535.932 313.401 532.9 312.236 C 530.851 311.451 530.688 311.879 532.067 314.452 C 534.492 318.985 534.195 320.046 530.853 318.775 C 528.513 317.884 528.347 318.079 530.02 319.763 C 531.167 320.918 532.106 322.932 532.106 324.236 C 532.106 326.254 531.689 326.268 529.328 324.32 C 526.819 322.251 526.74 322.381 528.494 325.674 C 531.127 330.613 530.939 331.754 527.698 330.512 C 525.408 329.632 525.305 329.878 527.069 332.001 C 528.957 334.277 528.332 335.206 525.187 334.797 C 524.591 334.719 524.522 336.249 525.031 338.198 C 525.659 340.596 525.343 341.357 524.046 340.554 C 522.833 339.805 522.474 340.262 523.068 341.807 C 523.582 343.145 522.822 347.714 521.38 351.962 C 518.017 361.869 518.077 363.272 522.062 367.865 C 523.877 369.959 524.958 372.327 524.465 373.126 C 523.97 373.925 524.296 374.579 525.187 374.579 C 526.078 374.579 526.602 376.433 526.354 378.703 C 526.104 380.971 526.468 382.476 527.16 382.049 C 528.897 380.975 530.7 386.147 529.351 388.332 C 528.721 389.35 529.038 389.622 530.095 388.97 C 532.377 387.558 536.03 393.961 534.426 396.557 C 533.728 397.687 534 397.99 535.099 397.311 C 537.271 395.968 541.071 402.244 539.565 404.681 C 538.996 405.603 539.523 406.15 540.739 405.899 C 541.953 405.647 542.853 406.694 542.739 408.227 C 542.623 409.761 543.378 410.688 544.417 410.289 C 545.457 409.891 547.08 411.263 548.025 413.34 C 548.97 415.418 550.684 416.919 551.838 416.676 C 553.468 416.333 553.51 417.027 552.028 419.796 C 550.981 421.756 550.862 422.901 551.767 422.342 C 554.058 420.926 557.688 425.703 556.18 428.146 C 555.455 429.317 555.649 429.709 556.647 429.091 C 559.035 427.615 564.408 433.969 562.871 436.454 C 562.13 437.655 562.312 438.054 563.32 437.432 C 564.255 436.853 566.349 437.846 567.971 439.638 C 569.593 441.43 571.444 442.57 572.086 442.174 C 572.728 441.777 573.378 442.545 573.531 443.881 C 573.684 445.218 573.935 447.403 574.088 448.739 C 574.24 450.075 574.869 450.856 575.484 450.476 C 576.91 449.595 589.185 462.075 588.028 463.229 C 587.555 463.703 589.207 465.908 591.7 468.128 C 594.19 470.35 595.22 470.853 593.989 469.248 C 592.632 467.478 592.448 466.329 593.525 466.329 C 594.5 466.329 595.771 467.091 596.346 468.023 C 596.924 468.957 598.21 469.216 599.205 468.601 C 600.245 467.959 600.538 468.252 599.896 469.292 C 599.281 470.287 599.352 471.445 600.056 471.862 C 600.758 472.28 608.466 465.866 617.181 457.61 C 625.898 449.353 631.9 442.964 630.52 443.411 C 629.076 443.878 626.638 442.36 624.794 439.846 L 621.581 435.467 L 625.638 438.803 L 629.694 442.14 L 626.55 438.427 C 624.822 436.383 622.834 435.067 622.132 435.501 C 620.426 436.555 610.198 424.807 611.289 423.044 C 611.757 422.287 610.835 420.642 609.24 419.391 C 606.562 417.29 606.526 417.373 608.791 420.454 C 610.601 422.918 610.055 422.733 606.705 419.746 C 602.091 415.635 600.455 411.764 604.254 413.949 C 605.465 414.647 605.757 414.513 604.95 413.631 C 604.184 412.797 602.681 412.111 601.614 412.107 C 600.542 412.106 599.666 410.604 599.666 408.771 C 599.662 406.939 598.537 405.421 597.162 405.4 C 595.785 405.378 594.762 404.094 594.882 402.546 C 595.003 400.997 594.253 399.89 593.213 400.084 C 592.176 400.277 591.315 399.174 591.304 397.635 C 591.291 396.093 590.609 394.216 589.786 393.464 C 588.913 392.666 588.854 393.072 589.647 394.438 C 590.591 396.063 590.383 396.396 588.966 395.52 C 587.845 394.827 587.326 393.218 587.815 391.946 C 588.304 390.673 587.792 389.811 586.677 390.029 C 585.563 390.248 584.757 389.12 584.88 387.525 C 585.011 385.875 584.349 385.093 583.347 385.714 C 582.207 386.417 582.01 385.693 582.789 383.662 C 583.452 381.934 583.459 381.055 582.806 381.708 C 581.068 383.447 576.739 376.587 578.141 374.318 C 578.93 373.039 578.588 372.852 577.121 373.762 C 575.502 374.76 575.203 374.359 576.009 372.263 C 576.614 370.688 576.443 369.811 575.632 370.311 C 573.604 371.566 572.009 366.856 573.312 363.461 C 573.979 361.72 573.714 361.095 572.601 361.783 C 570.597 363.021 568.286 358.419 569.732 356.079 C 570.247 355.243 569.794 354.561 568.726 354.561 C 567.653 354.561 567.226 353.4 567.773 351.972 C 568.395 350.349 568.084 349.805 566.938 350.511 C 565.703 351.275 565.497 350.426 566.304 347.887 C 567.169 345.16 566.939 344.476 565.469 345.385 C 563.997 346.295 563.768 345.611 564.634 342.883 C 565.5 340.156 565.271 339.472 563.799 340.381 C 562.33 341.29 562.101 340.606 562.965 337.878 C 563.848 335.097 563.614 334.458 562.067 335.417 C 560.504 336.382 560.257 335.593 561.086 332.288 C 561.753 329.635 561.505 327.869 560.463 327.869 C 559.471 327.869 559.16 326.169 559.733 323.881 C 560.284 321.688 559.92 319.39 558.924 318.775 C 557.926 318.157 557.573 315.833 558.137 313.589 C 558.697 311.349 558.515 309.52 557.724 309.52 C 556.937 309.52 556.187 306.705 556.056 303.264 C 553.925 247.008 552.716 229.295 551.531 236.953 M 706.59 308.781 C 707.057 311.353 707.786 314.02 708.213 314.709 C 708.638 315.398 708.223 316.433 707.291 317.01 C 706.335 317.6 705.729 323.651 705.901 330.887 L 706.207 343.717 L 707.265 330.372 C 708.032 320.663 708.403 319.184 708.627 324.951 C 708.793 329.31 709.602 332.874 710.422 332.874 C 712.119 332.874 714.648 327.813 714.107 325.503 C 713.91 324.658 714.849 324.882 716.197 325.999 C 719.97 329.132 721.194 325.309 717.985 320.409 C 716.463 318.091 715.799 316.192 716.505 316.192 C 717.211 316.192 716.459 314.721 714.83 312.923 C 713.203 311.125 711.056 309.81 710.059 310.003 C 709.064 310.195 708.215 309.478 708.174 308.407 C 708.132 307.337 707.567 305.932 706.92 305.284 C 706.273 304.635 706.125 306.209 706.59 308.781 M 275.538 311.521 C 274.437 312.622 273.536 314.482 273.536 315.653 C 273.536 316.824 271.659 319.013 269.366 320.516 C 267.072 322.02 265.195 324.005 265.195 324.928 C 265.195 325.855 266.51 325.579 268.115 324.32 C 270.757 322.248 270.817 322.306 268.761 324.932 C 267.509 326.526 265.893 327.465 265.167 327.018 C 263.447 325.954 252.858 341.972 247.224 354.158 C 241.379 366.805 239.978 392.285 244.302 407.308 C 255.779 447.198 285.347 481.295 363.073 544.268 C 423.588 593.297 443.302 615.561 462.991 657.097 C 466.968 665.486 470.255 671.709 470.3 670.927 C 470.508 667.281 455.866 639.223 446.282 624.899 C 427.893 597.423 413.075 582.994 351.107 532.222 C 316.672 504.009 284.99 473.452 271.546 455.485 C 260.101 440.192 248.065 416.191 245.359 403.274 C 243.245 393.174 242.875 374.579 244.788 374.579 C 245.493 374.579 245.981 372.14 245.873 369.157 C 245.587 361.326 248.26 352.538 250.503 353.924 C 251.561 354.579 251.902 354.327 251.293 353.34 C 250.702 352.385 251.711 351.212 253.536 350.735 C 255.361 350.258 256.855 350.549 256.855 351.38 C 256.855 352.212 256.191 352.893 255.382 352.893 C 253.337 352.893 251.833 359.358 253.62 360.463 C 254.422 360.958 256.034 359.832 257.201 357.962 C 258.369 356.09 259.988 354.561 260.797 354.561 C 261.605 354.561 261.44 355.556 260.429 356.774 C 259.016 358.478 259.797 359.88 263.824 362.856 C 268.799 366.535 269.163 366.578 271.244 363.73 C 273.146 361.13 273.808 361.043 276.307 363.071 C 278.194 364.603 278.752 364.688 277.929 363.318 C 277.239 362.173 277.427 361.234 278.344 361.234 C 279.262 361.234 280.476 361.984 281.043 362.902 C 281.611 363.819 281.304 364.57 280.359 364.57 C 279.416 364.57 279.068 365.884 279.586 367.488 C 280.359 369.898 280.221 369.979 278.79 367.955 C 277.835 366.605 276.506 366.049 275.833 366.721 C 275.163 367.393 276.247 369.464 278.246 371.326 C 280.243 373.186 281.877 373.912 281.877 372.938 C 281.877 371.962 283.871 372.471 286.308 374.069 C 289.832 376.377 290.557 376.47 289.853 374.523 C 289.365 373.177 288.15 372.255 287.15 372.474 C 286.151 372.692 285.705 371.902 286.161 370.715 C 286.615 369.53 285.083 364.254 282.756 358.991 C 278.413 349.169 274.315 319.278 277.157 318.139 C 277.918 317.832 278.541 316.849 278.541 315.955 C 278.541 315.059 277.604 314.876 276.456 315.547 C 275.309 316.217 275.8 315.135 277.549 313.143 C 280.836 309.392 279.081 307.978 275.538 311.521 M 721.453 327.264 C 718.924 329.793 719.069 330.233 723.418 333.229 C 728.056 336.422 728.062 336.453 723.945 335.518 C 721.653 334.998 720.718 335.006 721.871 335.535 C 723.023 336.063 723.585 337.111 723.12 337.865 C 722.654 338.62 723.667 338.872 725.369 338.426 C 727.62 337.837 729.494 339.358 732.232 343.998 C 742.64 361.639 745.681 380.751 741.344 401.269 C 738.166 416.325 726.156 439.636 713.416 455.485 C 697.995 474.67 662.288 508.73 628.713 536.284 C 612.739 549.394 592.205 566.982 583.085 575.365 C 567.909 589.314 543.255 617.899 538.612 626.927 C 536.054 631.902 537.989 629.665 549.284 614.601 C 562.287 597.256 593.083 567.312 622.187 543.718 C 700.765 480.017 735.133 439.694 743.166 401.795 C 746.278 387.108 746.246 377.636 743.044 365.345 C 740.57 355.849 731.2 336.848 726.052 330.894 C 724.713 329.346 724.112 327.283 724.715 326.306 C 726.364 323.64 724.542 324.174 721.453 327.264 M 708.932 339.268 C 708.932 343.959 709.445 344.533 713.52 344.385 C 717.328 344.247 717.541 344.034 714.77 343.133 C 712.935 342.537 711.175 340.548 710.858 338.712 C 709.924 333.298 708.932 333.585 708.932 339.268 M 706.356 353.309 C 705.713 356.292 703.433 362.205 701.295 366.451 C 699.154 370.698 697.872 374.638 698.442 375.21 C 699.013 375.78 698.679 376.247 697.697 376.247 C 696.278 376.247 691.164 383.342 688.538 388.953 C 687.265 391.675 671.968 407.065 670.813 406.788 C 670.075 406.611 662.397 413.741 653.753 422.631 C 641.382 435.354 640.698 436.262 650.545 426.897 C 657.427 420.353 663.926 415.328 664.989 415.729 C 666.051 416.131 667.411 415.67 668.007 414.703 C 668.604 413.737 668.253 412.947 667.227 412.947 C 666.201 412.947 665.854 412.151 666.455 411.179 C 667.146 410.061 668.39 410.522 669.836 412.429 C 672.013 415.3 672.372 415.164 672.858 411.279 C 672.973 410.361 673.817 409.538 674.734 409.445 C 675.651 409.355 677.817 408.524 679.547 407.599 C 681.899 406.339 682.161 405.587 680.584 404.612 C 679.425 403.897 679.002 402.464 679.64 401.428 C 680.279 400.393 681.45 399.946 682.241 400.435 C 683.031 400.924 684.149 400.56 684.727 399.628 C 685.302 398.696 684.95 397.933 683.942 397.933 C 682.762 397.933 682.874 397.099 684.262 395.591 C 685.443 394.302 686.786 393.364 687.246 393.506 C 689.193 394.107 694.746 386.82 694.261 384.302 C 693.97 382.791 695.463 379.942 697.58 377.971 C 699.694 376 701.457 373.868 701.497 373.232 C 701.707 369.819 706.031 359.636 707.013 360.244 C 707.645 360.634 708.239 358.013 708.332 354.42 C 708.541 346.466 707.913 346.113 706.356 353.309 M 300.043 392.257 C 301.216 394.677 301.184 396.31 299.931 397.563 C 298.633 398.86 299.006 399.24 301.26 398.908 C 302.986 398.654 305.312 399.645 306.43 401.11 C 307.547 402.574 308.467 403.021 308.47 402.103 C 308.475 401.187 306.198 397.807 303.412 394.596 C 300.626 391.385 299.109 390.332 300.043 392.257 M 309.494 406.206 C 311.379 406.97 315.319 410.326 318.252 413.664 C 321.183 417.004 323.582 419.111 323.582 418.348 C 323.582 415.938 311.04 404.601 308.498 404.711 C 307.057 404.775 307.462 405.383 309.494 406.206 M 653.244 427.763 C 648.175 432.909 645.91 436.332 647.091 437.062 C 648.119 437.697 648.754 437.585 648.503 436.81 C 647.875 434.884 655.268 427.126 657.731 427.126 C 658.825 427.126 659.733 426.376 659.745 425.458 C 659.761 424.541 660.369 422.852 661.095 421.704 C 663.544 417.848 661.31 419.571 653.244 427.763 M 597.956 474.423 C 598.825 475.949 595.577 480.368 587.901 488.103 C 581.666 494.387 575.995 499.178 575.3 498.75 C 574.609 498.321 573.646 498.607 573.164 499.387 C 572.681 500.166 573.335 500.805 574.619 500.805 C 575.9 500.805 582.406 495.308 589.078 488.592 C 599.125 478.478 600.82 476.017 598.942 474.274 C 597.104 472.566 596.916 472.594 597.956 474.423 M 414.595 507.199 C 427.902 523.058 433.158 528.47 425.281 518.198 C 422.18 514.157 415.988 507.026 411.519 502.351 C 406.085 496.666 407.103 498.271 414.595 507.199 M 520.223 659.184 C 517.476 665.246 515.508 670.487 515.851 670.831 C 516.193 671.175 518.805 666.213 521.65 659.807 C 524.496 653.402 526.465 648.16 526.023 648.16 C 525.583 648.16 522.973 653.122 520.223 659.184 M 504.076 685.611 C 503.89 698.771 504.371 708.193 505.187 707.297 C 506.965 705.343 510.852 689.741 509.817 688.708 C 509.405 688.295 508.433 690.452 507.657 693.498 C 506.544 697.875 506.054 695.181 505.327 680.689 L 504.404 662.34 L 504.076 685.611 M 481.741 686.945 C 481.456 698.185 481.679 711.509 482.231 716.556 C 482.815 721.882 483.34 713.307 483.482 696.12 C 483.617 679.834 483.395 666.51 482.991 666.51 C 482.586 666.51 482.024 675.707 481.741 686.945" stroke="none" fill="#ae71fe" fill-rule="evenodd" style=""/>
    <path d="M 492.115 73.348 C 489.789 79.464 489.96 80.55 492.662 76.855 C 494.723 74.036 495.188 74.604 497.912 83.262 C 499.555 88.487 501.502 93.134 502.236 93.588 C 503.4 94.307 495.879 71.205 494.392 69.486 C 494.084 69.132 493.058 70.867 492.115 73.348 M 508.947 115.792 C 512.707 127.03 516.067 135.94 516.416 135.591 C 517.276 134.731 505.351 98.893 503.549 96.927 C 502.757 96.064 505.187 104.555 508.947 115.792 M 473.903 124.581 C 471.968 130.317 470.437 135.8 470.505 136.769 C 470.575 137.739 472.445 133.333 474.664 126.981 C 476.884 120.627 478.412 115.143 478.063 114.792 C 477.71 114.442 475.84 118.848 473.903 124.581 M 517.748 140.199 C 518.858 146.067 527.14 173.324 528.108 174.292 C 528.619 174.804 528.504 172.974 527.852 170.223 C 526.308 163.721 516.922 135.828 517.748 140.199 M 567.755 151.217 C 568.646 155.668 568.382 156.242 565.878 155.29 C 563.543 154.4 563.38 154.598 565.051 156.282 C 566.2 157.436 567.137 159.45 567.137 160.754 C 567.137 162.744 566.664 162.771 564.218 160.919 C 561.733 159.04 561.61 159.059 563.383 161.048 C 565.9 163.872 566.172 168.356 563.733 166.848 C 562.591 166.143 562.4 167.392 563.176 170.504 C 564.279 174.929 564.158 175.07 561.301 172.728 C 558.452 170.393 558.379 170.469 560.19 173.869 C 563.055 179.246 562.748 181.989 559.576 179.358 C 557.336 177.498 557.227 177.781 558.7 181.655 C 560.246 185.72 559.844 186.728 556.839 186.314 C 556.222 186.229 556.354 188.383 557.134 191.098 C 557.968 194.003 557.914 196.432 557.004 196.994 C 556.155 197.518 555.447 199.968 555.434 202.437 C 555.414 205.931 555.054 206.371 553.813 204.424 C 552.726 202.721 552.551 204.002 553.265 208.437 C 553.898 212.378 553.688 214.566 552.732 213.976 C 551.805 213.403 551.438 215.46 551.846 218.949 C 552.227 222.22 551.87 224.483 551.05 223.977 C 550.231 223.47 549.805 226.182 550.106 230.004 C 550.408 233.85 550.049 236.103 549.302 235.047 C 548.552 233.987 547.875 238.069 547.778 244.222 C 547.593 256.197 549.101 253.312 551.577 236.953 C 552.53 230.668 553.117 236.422 553.96 260.308 C 555.187 295.098 558.593 319.907 564.95 340.381 C 574.235 370.283 595.429 405.258 619.969 431.175 L 631.932 443.808 L 652.203 423.79 C 670.094 406.123 688.984 384.588 686.588 384.588 C 686.119 384.588 687.564 382.616 689.796 380.207 C 692.028 377.799 693.45 375.171 692.955 374.369 C 692.459 373.566 692.746 372.911 693.591 372.911 C 694.439 372.911 697.275 368.22 699.897 362.484 C 703.603 354.377 704.804 348.971 705.305 338.168 C 706.336 315.902 704.75 308.121 697.58 300.272 C 694.188 296.561 692.456 295.06 693.726 296.934 C 694.997 298.81 690.193 294.339 683.049 286.999 C 675.905 279.659 671.489 275.519 673.231 277.799 C 675.552 280.834 674.575 280.386 669.586 276.131 C 665.836 272.933 663.003 269.856 663.291 269.29 C 663.577 268.725 662.155 266.848 660.128 265.119 C 656.491 262.018 656.472 262.022 658.707 265.313 C 659.953 267.148 658.99 266.531 656.568 263.941 C 654.147 261.351 652.572 258.575 653.068 257.772 C 653.565 256.969 652.429 256.61 650.545 256.972 C 648.662 257.334 647.492 257.028 647.946 256.293 C 648.916 254.725 641.532 247.356 640.262 248.626 C 639.791 249.097 637.969 247.85 636.218 245.851 C 634.207 243.561 633.955 242.739 635.532 243.627 C 637.117 244.517 636.869 243.705 634.856 241.411 C 631.343 237.406 629.685 236.644 631.508 239.873 C 632.375 241.409 632.072 241.388 630.356 239.789 C 629.075 238.596 628.025 236.719 628.025 235.619 C 628.025 234.519 627.125 233.617 626.023 233.617 C 624.924 233.617 623.046 232.568 621.853 231.287 C 620.062 229.362 620.091 229.19 622.028 230.294 C 623.598 231.19 623.978 230.995 623.179 229.705 C 622.525 228.646 621.002 227.778 619.791 227.778 C 618.58 227.778 616.559 226.465 615.3 224.86 C 613.184 222.159 613.262 222.124 616.347 224.392 C 618.812 226.203 618.627 225.656 615.641 222.307 C 611.457 217.615 609.424 216.33 611.502 219.696 C 612.246 220.899 611.959 221.168 610.739 220.414 C 609.664 219.75 609.195 218.547 609.694 217.738 C 610.194 216.931 608.33 214.59 605.552 212.535 C 602.774 210.482 600.5 207.861 600.5 206.711 C 600.5 205.562 599.633 204.086 598.573 203.431 C 597.3 202.642 597.106 202.98 597.998 204.424 C 598.911 205.901 598.696 206.205 597.341 205.367 C 595.931 204.498 595.851 203.504 597.069 202.037 C 599.135 199.545 597.719 197.643 594.666 198.814 C 593.474 199.273 591.929 198.729 591.237 197.608 C 590.372 196.209 590.711 195.968 592.317 196.842 C 593.607 197.544 592.41 196.105 589.657 193.642 C 586.904 191.182 585.465 189.566 586.459 190.051 C 587.453 190.535 588.267 189.911 588.267 188.661 C 588.267 187.413 587.341 186.746 586.21 187.182 C 585.081 187.615 583.588 187.052 582.896 185.93 C 582.166 184.747 582.33 184.32 583.282 184.91 C 584.189 185.469 584.931 184.906 584.931 183.657 C 584.931 182.282 583.888 181.777 582.289 182.376 C 579.991 183.233 579.95 182.991 581.968 180.509 C 583.987 178.03 583.947 177.788 581.666 178.664 C 579.861 179.356 578.2 178.047 576.357 174.483 C 574.882 171.629 574.083 168.63 574.585 167.818 C 575.088 167.005 574.593 166.039 573.487 165.671 C 572.382 165.302 571.326 161.672 571.145 157.604 C 570.633 146.216 570.594 146.038 568.596 146.038 C 567.386 146.038 567.088 147.88 567.755 151.217 M 415.053 161.235 C 413.525 162.816 412.614 164.451 413.032 164.866 C 414.323 166.157 409.924 174.345 408.434 173.425 C 407.662 172.945 407.523 173.843 408.127 175.418 C 408.933 177.513 408.634 177.914 407.016 176.916 C 405.566 176.018 405.206 176.196 405.969 177.428 C 407.767 180.339 401.961 188.089 398.872 186.903 C 397.429 186.351 396.784 186.431 397.435 187.084 C 398.087 187.736 397.689 189.464 396.55 190.926 C 394.703 193.293 394.84 193.335 397.815 191.31 C 399.651 190.062 398.525 191.475 395.313 194.45 C 392.102 197.425 390.562 199.249 391.889 198.503 C 393.257 197.735 392.677 199.431 390.546 202.424 C 388.479 205.325 386.267 207.526 385.629 207.314 C 384.993 207.1 384.47 207.411 384.47 208.002 C 384.47 210.249 378.001 216.105 375.969 215.696 C 374.802 215.46 373.984 216.018 374.154 216.935 C 374.323 217.853 375.212 218.415 376.13 218.184 C 377.047 217.951 368.152 227.123 356.363 238.564 C 344.575 250.004 334.22 259.2 333.352 259.002 C 332.487 258.804 326.45 264.27 319.935 271.151 C 313.423 278.033 309.507 281.785 311.238 279.492 L 314.383 275.322 L 310.225 278.974 C 307.937 280.984 305.362 282.652 304.503 282.682 C 303.642 282.712 302.765 283.921 302.553 285.368 C 302.019 289.005 298.633 292.806 296.313 292.368 C 295.255 292.167 294.552 292.871 294.753 293.931 C 294.955 294.992 292.613 297.768 289.551 300.105 C 276.782 309.843 276.806 343.06 289.598 368.323 C 291.805 372.681 294.394 376.247 295.35 376.247 C 296.306 376.247 296.62 377.003 296.051 377.926 C 295.478 378.851 296.18 380.055 297.61 380.605 C 299.039 381.153 299.79 382.279 299.278 383.107 C 298.766 383.934 299.517 385.059 300.947 385.609 C 302.375 386.158 303.17 387.212 302.712 387.954 C 302.252 388.695 303.948 390.924 306.475 392.907 C 309.002 394.89 309.944 396.026 308.568 395.433 C 307.191 394.84 309.819 397.891 314.407 402.215 C 318.995 406.541 321.247 409.08 319.411 407.86 C 314.592 404.656 343.498 434.196 349.294 438.396 L 354.151 441.92 L 364.062 431.375 C 383.998 410.166 405.406 378.299 415.12 355.372 C 420.777 342.023 429.268 310.127 428.025 306.89 C 427.57 305.703 427.877 304.495 428.709 304.206 C 430.687 303.519 433.65 265.341 434.212 233.284 C 434.574 212.703 434.253 208.263 432.502 209.715 C 430.83 211.104 430.345 210.498 430.345 207.021 C 430.345 204.554 431.22 200.897 432.287 198.893 C 434.042 195.599 433.962 195.47 431.453 197.538 C 428.998 199.563 428.677 199.361 428.677 195.787 C 428.677 193.564 429.616 190.693 430.763 189.408 C 432.401 187.57 432.163 187.589 429.647 189.491 C 426.605 191.792 426.502 191.624 427.56 186.075 C 428.401 181.66 428.231 180.846 426.866 182.737 C 425.483 184.655 425.282 183.952 426.01 179.735 C 426.544 176.633 426.301 174.637 425.452 175.163 C 422.881 176.752 421.495 166.206 423.861 163.068 C 425.691 160.644 425.662 160.532 423.659 162.319 C 421.739 164.032 420.985 163.86 419.569 161.39 C 417.928 158.522 417.684 158.514 415.053 161.235 M 458.932 192.972 C 458.689 197.668 463.726 214.971 464.972 213.725 C 465.382 213.316 464.557 209.367 463.137 204.949 C 461.718 200.533 460.241 195.041 459.857 192.747 L 459.159 188.577 L 458.932 192.972 M 466.861 219.751 C 469.274 226.149 476.972 241.125 477.847 241.125 C 478.921 241.125 468.808 218.906 466.835 216.935 C 465.742 215.843 465.752 216.812 466.861 219.751 M 517.284 221.291 C 516.424 223.483 513.685 229.781 511.2 235.285 C 502.638 254.25 500.202 260.303 501.804 258.64 C 504.134 256.218 520.481 218.934 519.597 218.052 C 519.188 217.641 518.147 219.101 517.284 221.291 M 360.359 231.872 C 355.415 236.875 350.563 240.508 349.572 239.945 C 348.581 239.382 348.327 239.535 349.007 240.287 C 349.687 241.038 349.356 242.846 348.27 244.307 C 347.185 245.768 351.695 241.728 358.293 235.33 C 364.893 228.933 370.291 223.489 370.291 223.237 C 370.291 222.04 368.716 223.408 360.359 231.872 M 544.02 267.149 C 542.866 273.479 541.485 280.535 540.95 282.828 C 540.414 285.123 540.445 286.573 541.02 286.052 C 542.502 284.705 547.504 259.795 546.747 257.526 C 546.401 256.488 545.174 260.818 544.02 267.149" stroke="none" fill="#cf9efe" fill-rule="evenodd" style=""/>
    <path d="M 348.557 242.375 L 337.761 253.636 L 349.022 242.84 C 355.214 236.903 360.282 231.836 360.282 231.581 C 360.282 230.353 358.583 231.916 348.557 242.375 M 638.68 244.915 C 641.569 248.587 667.227 271.787 667.227 270.728 C 667.227 270.3 660.282 263.656 651.797 255.963 C 643.312 248.269 637.407 243.297 638.68 244.915 M 279.762 306.183 C 278.087 308.138 277.696 309.52 278.816 309.52 C 279.867 309.52 279.297 311.15 277.549 313.143 C 275.8 315.135 275.309 316.217 276.456 315.547 C 277.604 314.876 278.541 315.059 278.541 315.955 C 278.541 316.849 277.918 317.832 277.157 318.139 C 274.315 319.278 278.413 349.169 282.756 358.991 C 285.083 364.254 286.615 369.53 286.161 370.715 C 285.705 371.902 286.151 372.692 287.15 372.474 C 288.15 372.255 289.365 373.177 289.853 374.523 C 290.557 376.47 289.832 376.377 286.308 374.069 C 283.871 372.471 281.877 371.962 281.877 372.938 C 281.877 373.912 280.243 373.186 278.246 371.326 C 276.247 369.464 275.163 367.393 275.833 366.721 C 276.506 366.049 277.835 366.605 278.79 367.955 C 280.221 369.979 280.359 369.898 279.586 367.488 C 279.068 365.884 279.416 364.57 280.359 364.57 C 281.304 364.57 281.611 363.819 281.043 362.902 C 280.476 361.984 279.262 361.234 278.344 361.234 C 277.427 361.234 277.239 362.173 277.929 363.318 C 278.752 364.688 278.194 364.603 276.307 363.071 C 273.808 361.043 273.146 361.13 271.244 363.73 C 269.163 366.578 268.799 366.535 263.824 362.856 C 259.797 359.88 259.016 358.478 260.429 356.774 C 261.44 355.556 261.605 354.561 260.797 354.561 C 259.988 354.561 258.369 356.09 257.201 357.962 C 256.034 359.832 254.422 360.958 253.62 360.463 C 251.833 359.358 253.337 352.893 255.382 352.893 C 256.191 352.893 256.855 352.16 256.855 351.265 C 256.855 350.238 255.382 350.199 252.856 351.159 C 250.656 351.994 248.365 352.186 247.763 351.586 C 247.161 350.984 247.213 351.906 247.875 353.634 C 248.564 355.427 248.421 356.369 247.547 355.828 C 246.679 355.292 246.012 359.161 246.012 364.73 C 246.012 370.144 245.345 374.576 244.529 374.576 C 243.684 374.579 243.564 381.22 244.251 390.01 C 244.914 398.495 245.581 407.434 245.734 409.869 C 245.886 412.303 246.487 414.002 247.069 413.642 C 248.809 412.567 252.273 422.589 250.919 424.781 C 250.185 425.968 250.364 426.377 251.348 425.769 C 253.438 424.477 257.308 432.547 255.784 435.015 C 255.071 436.169 255.465 436.326 256.88 435.45 C 258.498 434.451 258.796 434.853 257.99 436.949 C 257.37 438.565 257.574 439.39 258.457 438.844 C 260.54 437.557 264.005 444.188 262.513 446.602 C 261.841 447.688 262.083 448.037 263.08 447.422 C 265.322 446.035 269.163 450.615 267.718 452.951 C 267.112 453.932 267.61 454.528 268.825 454.276 C 270.057 454.021 271.069 455.292 271.113 457.153 C 271.155 458.988 272.021 460.327 273.037 460.126 C 275.155 459.709 278.655 463.458 279.14 466.662 C 279.653 470.049 281.977 473.136 283.367 472.277 C 284.061 471.848 290.183 477.092 296.973 483.928 C 303.764 490.762 308.643 496.356 307.819 496.356 C 306.994 496.356 308.059 498.209 310.188 500.474 C 312.317 502.74 314.577 504.273 315.213 503.882 C 315.847 503.488 318.929 505.471 322.059 508.287 C 325.19 511.103 326.251 512.386 324.416 511.138 C 321.341 509.045 321.261 509.099 323.403 511.826 C 324.68 513.455 326.097 514.415 326.551 513.962 C 327.005 513.508 329.567 514.697 332.249 516.606 C 334.927 518.512 336.707 520.486 336.203 520.99 C 334.632 522.562 338.723 526.23 341.051 525.335 C 343.203 524.51 346.026 527.352 346.077 530.395 C 346.09 531.224 347.514 532.111 349.24 532.363 C 352.936 532.906 356.096 535.741 356.148 538.56 C 356.169 539.662 357.383 540.366 358.845 540.124 C 361.376 539.705 364.841 542.469 365.144 545.151 C 365.223 545.839 365.475 546.275 365.703 546.119 C 366.961 545.268 373.53 550.121 373.194 551.651 C 372.974 552.648 374.224 553.703 375.975 553.995 C 377.723 554.285 380.725 556.218 382.647 558.288 C 385.889 561.785 385.9 561.882 382.802 559.65 C 379.711 557.421 379.636 557.461 381.79 560.204 C 383.066 561.832 384.479 562.796 384.927 562.348 C 386.189 561.086 392.802 566.227 392.887 568.536 C 392.928 569.666 393.888 570.396 395.016 570.158 C 397.838 569.566 431.051 602.297 429.755 604.394 C 429.183 605.32 430.02 607.101 431.615 608.353 C 434.275 610.438 434.326 610.351 432.222 607.29 C 430.961 605.455 431.91 606.072 434.333 608.661 C 436.753 611.251 438.336 614.014 437.849 614.802 C 437.362 615.589 437.842 616.777 438.916 617.441 C 440.22 618.247 440.42 617.922 439.52 616.465 C 438.601 614.977 438.819 614.684 440.211 615.542 C 441.332 616.234 441.855 617.828 441.376 619.082 C 440.894 620.337 441.334 621.879 442.353 622.507 C 443.476 623.201 443.738 622.895 443.016 621.729 C 442.361 620.669 442.147 619.801 442.537 619.801 C 444.496 619.801 451.999 633.54 450.994 635.29 C 450.352 636.404 450.446 636.759 451.197 636.076 C 453.095 634.358 457.507 641.045 456.041 643.416 C 455.252 644.696 455.593 644.883 457.062 643.973 C 458.679 642.974 458.978 643.376 458.172 645.471 C 457.433 647.4 457.705 647.944 459.007 647.139 C 460.309 646.333 460.581 646.877 459.84 648.807 C 459.101 650.736 459.373 651.28 460.675 650.475 C 461.977 649.671 462.249 650.214 461.509 652.143 C 460.77 654.072 461.041 654.616 462.343 653.812 C 463.646 653.007 463.917 653.55 463.177 655.48 C 462.438 657.409 462.71 657.953 464.011 657.149 C 465.314 656.343 465.585 656.886 464.845 658.817 C 464.193 660.517 464.416 661.265 465.396 660.66 C 466.9 659.73 467.689 662.391 467.496 667.743 C 467.455 668.881 468.168 669.35 469.081 668.785 C 470.115 668.147 470.291 669.176 469.549 671.515 C 468.655 674.327 468.89 674.94 470.487 673.952 C 472.002 673.017 472.309 673.438 471.551 675.412 C 470.966 676.94 471.293 678.187 472.28 678.187 C 473.268 678.187 473.628 679.352 473.081 680.776 C 472.437 682.455 472.76 682.95 474.002 682.185 C 475.3 681.38 475.611 682.153 474.971 684.6 C 474.455 686.579 474.761 688.197 475.655 688.197 C 476.552 688.197 476.776 689.783 476.154 691.741 C 475.325 694.354 475.585 694.944 477.138 693.984 C 478.674 693.035 478.994 693.659 478.307 696.279 C 477.71 698.563 478.007 699.483 479.121 698.793 C 480.283 698.075 480.491 699.252 479.734 702.268 C 478.985 705.252 479.188 706.456 480.325 705.754 C 481.34 705.127 482.101 697.286 482.16 686.847 C 482.213 677.038 482.838 665.49 483.549 661.182 C 484.422 655.87 484.263 653.455 483.05 653.675 C 482.021 653.862 481.491 651.974 481.804 649.225 C 482.16 646.109 481.718 644.839 480.534 645.57 C 478.272 646.967 478.151 641.54 480.319 635.838 C 481.612 632.434 481.455 631.815 479.485 632.572 C 476.395 633.758 476.129 626.512 479.14 623.134 C 480.914 621.146 480.789 621.126 478.305 623.006 C 475.771 624.923 475.387 624.791 475.387 622.006 C 475.387 620.243 476.326 617.855 477.471 616.7 C 479.143 615.015 478.978 614.82 476.637 615.711 C 473.174 617.029 472.617 613.237 475.804 610.028 C 477.476 608.343 477.34 608.136 475.119 608.979 C 472.215 610.085 469.252 604.627 471.119 601.608 C 471.643 600.76 471.127 599.751 469.976 599.363 C 468.34 598.812 468.39 598.039 470.2 595.846 C 472.244 593.372 472.169 593.169 469.59 594.16 C 466.997 595.153 466.892 594.845 468.687 591.494 C 470.312 588.456 470.293 587.964 468.597 589.011 C 467.109 589.931 466.785 589.52 467.511 587.631 C 468.274 585.646 467.835 585.211 465.836 585.979 C 463.787 586.764 463.399 586.317 464.234 584.139 C 464.843 582.555 464.674 581.67 463.864 582.17 C 461.372 583.712 460.185 577.835 462.43 575.062 C 464.164 572.92 464.136 572.697 462.272 573.82 C 459.239 575.646 456.646 571.402 459.037 568.523 C 460.453 566.815 460.161 566.6 457.688 567.527 C 454.886 568.579 454.794 568.393 456.854 565.859 C 458.906 563.338 458.826 563.141 456.164 564.163 C 454.259 564.893 453.549 564.678 454.229 563.577 C 454.821 562.618 453.412 559.79 451.096 557.293 C 447.742 553.673 447.288 552.268 448.861 550.372 C 450.482 548.418 450.272 548.196 447.679 549.13 C 445.945 549.758 445.009 549.73 445.599 549.068 C 446.189 548.408 444.81 546.004 442.534 543.727 C 439.29 540.484 438.81 539.086 440.316 537.273 C 441.834 535.443 441.428 534.562 438.378 533.081 C 434.69 531.287 434.661 531.321 437.754 533.799 C 439.536 535.224 440.149 536.392 439.118 536.392 C 438.089 536.392 435.545 534.005 433.466 531.085 C 431.305 528.048 430.721 526.345 432.102 527.099 C 433.43 527.825 432.534 526.646 430.112 524.482 C 420.386 515.79 403.716 494.847 405.596 493.685 C 406.671 493.022 407.055 493.236 406.473 494.174 C 405.907 495.093 407.855 498.024 410.804 500.689 L 416.166 505.53 L 411.556 500.411 C 409.02 497.595 407.311 494.922 407.76 494.474 C 408.209 494.025 404.417 489.573 399.332 484.58 C 394.248 479.588 390.326 476.254 390.616 477.172 C 390.906 478.09 390.392 479.215 389.475 479.674 C 386.994 480.913 386.396 473.205 388.751 470.367 C 391.414 467.16 389.443 465.255 386.224 467.927 C 384.134 469.66 381.408 467.887 369.51 457.057 L 355.292 444.115 L 363.245 435.621 C 372.136 426.122 380.799 415.427 387.688 405.439 L 392.293 398.767 L 387.548 404.546 C 370.706 425.053 358.482 439.34 356.049 441.358 C 353.517 443.458 350.903 441.32 330.42 420.399 C 288.851 377.94 275.333 350.102 280.39 317.37 C 281.413 310.759 283.104 304.796 284.148 304.123 C 285.271 303.4 285.345 302.887 284.333 302.872 C 283.39 302.858 281.334 304.348 279.762 306.183 M 450.872 305.349 C 451.38 307.185 454.177 317.319 457.088 327.869 C 459.997 338.421 462.96 347.673 463.669 348.43 C 464.38 349.187 462.042 339.482 458.478 326.864 C 454.913 314.248 451.535 303.493 450.973 302.967 C 450.411 302.443 450.365 303.514 450.872 305.349 M 705.028 312.346 C 708.442 323.307 707.14 345.636 702.353 358.243 C 697.662 370.591 685.669 388.738 671.235 405.324 C 657.843 420.713 601.94 472.967 600.056 471.855 C 599.352 471.442 599.285 470.215 599.906 469.133 C 600.528 468.048 600.42 467.72 599.669 468.399 C 598.919 469.08 597.167 468.704 595.774 467.565 C 593.919 466.047 594.033 466.704 596.2 470.037 L 599.156 474.577 L 589.537 485.051 L 579.918 495.522 L 590.209 485.262 C 595.869 479.619 600.5 475.603 600.5 476.341 C 600.5 477.077 593.369 484.428 584.653 492.677 C 575.937 500.927 568.805 508.326 568.805 509.121 C 568.805 509.916 567.275 511.523 565.403 512.691 C 563.533 513.859 562.445 515.534 562.989 516.41 C 563.555 517.326 562.758 517.537 561.111 516.906 C 559.252 516.192 558.645 516.45 559.383 517.643 C 560.007 518.652 559.744 519.959 558.795 520.545 C 557.848 521.13 557.481 522.271 557.981 523.079 C 558.481 523.886 557.346 525.373 555.459 526.383 C 553.573 527.392 552.473 528.938 553.015 529.815 C 553.559 530.694 552.834 531.86 551.403 532.408 C 549.976 532.958 549.3 534.205 549.904 535.182 C 550.568 536.257 550.015 536.581 548.504 536.001 C 547.041 535.438 546.005 535.982 546.005 537.311 C 546.005 538.56 546.709 539.146 547.568 538.616 C 548.429 538.084 547.817 539.656 546.211 542.109 C 544.602 544.562 542.399 546.227 541.312 545.811 C 540.223 545.392 539.333 546.073 539.333 547.32 C 539.333 548.569 540.033 549.159 540.89 548.628 C 541.747 548.1 541.563 549.318 540.484 551.335 C 539.237 553.664 537.57 554.636 535.912 553.999 C 533.645 553.129 533.606 553.373 535.623 555.85 C 537.658 558.354 537.597 558.573 535.109 557.641 C 532.985 556.847 532.534 557.257 533.308 559.271 C 534.075 561.271 533.731 561.595 531.971 560.534 C 529.95 559.314 529.938 559.52 531.891 561.929 C 533.304 563.671 533.486 564.751 532.369 564.751 C 531.371 564.751 529.703 566.342 528.66 568.289 C 527.312 570.808 527.299 571.498 528.615 570.685 C 529.92 569.879 529.896 570.783 528.536 573.768 C 527.478 576.092 525.981 577.602 525.206 577.124 C 524.434 576.646 524.213 577.323 524.713 578.629 C 525.213 579.935 524.455 582.172 523.026 583.602 C 521.597 585.029 520.429 587.834 520.429 589.834 C 520.429 592.605 519.735 593.204 517.508 592.357 C 515.167 591.466 515.002 591.66 516.674 593.345 C 519.632 596.325 519.258 598.663 516.021 597.421 C 513.912 596.612 513.697 596.87 515.091 598.551 C 516.153 599.828 516.314 601.678 515.481 603.025 C 514.702 604.288 514.5 606.456 515.033 607.845 C 515.741 609.693 515.24 610.079 513.17 609.285 C 510.735 608.351 510.606 608.695 512.242 611.75 C 513.864 614.779 513.739 615.149 511.407 614.252 C 509.153 613.387 508.972 613.763 510.38 616.393 C 512.74 620.804 512.518 621.992 509.545 620.85 C 507.496 620.065 507.334 620.492 508.711 623.066 C 511.149 627.621 510.825 629.811 507.713 629.811 C 505.608 629.811 505.429 630.319 506.903 632.098 C 508.193 633.652 508.294 635.657 507.213 638.352 C 506.34 640.535 505.577 641.258 505.52 639.957 C 505.463 638.658 505.059 637.95 504.624 638.385 C 504.192 638.819 504.616 641.997 505.569 645.448 C 506.638 649.323 506.711 652.479 505.757 653.695 C 504.853 654.851 504.696 664.64 505.38 677.353 C 506.02 689.281 506.666 697.682 506.813 696.022 C 506.963 694.362 507.763 693.425 508.595 693.939 C 509.426 694.454 509.684 693.255 509.166 691.275 C 508.505 688.747 508.821 688.044 510.223 688.909 C 511.679 689.81 511.911 688.91 511.076 685.585 C 510.318 682.57 510.528 681.394 511.687 682.111 C 512.802 682.8 513.099 681.881 512.502 679.597 C 511.861 677.149 512.172 676.376 513.473 677.18 C 514.713 677.946 515.036 677.45 514.392 675.772 C 513.844 674.347 514.205 673.183 515.193 673.183 C 516.18 673.183 516.507 671.936 515.922 670.407 C 515.257 668.677 515.52 668.042 516.619 668.721 C 517.59 669.319 518.349 668.881 518.309 667.743 C 518.115 662.391 518.904 659.73 520.408 660.66 C 521.388 661.265 521.612 660.517 520.959 658.817 C 520.219 656.886 520.491 656.343 521.793 657.149 C 523.033 657.915 523.388 657.462 522.781 655.883 C 522.262 654.529 523.397 651.864 525.304 649.957 C 527.209 648.052 528.768 646.117 528.768 645.658 C 528.768 645.199 528.768 644.039 528.768 643.076 C 528.768 642.114 530.832 639.364 533.356 636.965 C 535.88 634.565 536.817 633.155 535.442 633.832 C 534.065 634.508 534.302 633.95 535.97 632.587 C 537.636 631.228 538.95 629.67 538.89 629.128 C 538.59 626.489 539.106 625.332 542.295 621.469 C 544.19 619.176 545.183 618.353 544.503 619.643 C 543.68 621.2 543.921 621.581 545.22 620.777 C 546.294 620.114 546.81 618.983 546.364 618.264 C 545.921 617.545 546.714 615.532 548.129 613.791 C 549.543 612.05 550.154 611.68 549.487 612.97 C 548.68 614.523 548.929 614.905 550.224 614.105 C 551.299 613.441 551.835 612.343 551.416 611.666 C 550.997 610.986 552.297 608.564 554.307 606.281 C 556.317 603.998 557.21 603.29 556.293 604.71 C 554.841 606.955 555.002 606.993 557.526 605.017 C 559.121 603.765 560.043 602.121 559.575 601.363 C 558.556 599.713 568.476 588.033 570.439 588.568 C 571.192 588.773 571.937 588.19 572.093 587.272 C 572.616 584.212 577.568 579.83 579.294 580.896 C 580.235 581.476 580.494 581.133 579.873 580.129 C 578.752 578.315 591.457 566.931 593.851 567.604 C 594.536 567.797 596.502 566.296 598.218 564.268 L 601.334 560.581 L 597.164 563.85 L 592.994 567.122 L 597.309 562.492 C 599.683 559.947 603.062 557.652 604.817 557.394 C 606.571 557.138 608.007 556.032 608.007 554.94 C 608.007 552.664 612.285 549.608 613.994 550.663 C 614.622 551.052 616.159 550.063 617.41 548.468 C 619.494 545.809 619.406 545.758 616.347 547.838 C 614.513 549.085 615.575 547.803 618.705 544.987 C 621.835 542.171 625.143 540.328 626.051 540.89 C 626.963 541.452 627.195 541.083 626.568 540.071 C 625.431 538.229 631.03 534.114 632.573 535.656 C 633.021 536.106 634.434 535.141 635.71 533.513 C 637.864 530.771 637.789 530.73 634.698 532.959 C 631.601 535.191 631.611 535.094 634.853 531.598 C 636.775 529.528 639.778 527.595 641.525 527.304 C 643.276 527.012 644.533 525.976 644.32 525.002 C 644.108 524.028 646.172 521.637 648.908 519.688 C 651.645 517.74 653.882 516.666 653.882 517.298 C 653.882 517.932 654.999 517.524 656.366 516.389 C 657.732 515.255 658.461 513.7 657.989 512.932 C 657.063 511.437 666.797 503.634 668.877 504.207 C 669.56 504.395 671.91 502.518 674.095 500.036 L 678.071 495.522 L 673.065 499.685 L 668.062 503.851 L 672.904 498.494 C 675.569 495.549 678.499 493.603 679.419 494.171 C 680.336 494.737 680.633 494.467 680.078 493.567 C 679.52 492.666 683.909 487.129 689.828 481.262 C 695.748 475.395 700.591 471.253 700.591 472.057 C 700.591 472.862 702.075 472.175 703.888 470.534 C 705.7 468.894 706.838 466.989 706.413 466.302 C 705.292 464.487 712.115 456.315 714.372 456.768 C 715.424 456.98 716.319 455.654 716.36 453.822 C 716.403 451.988 717.562 450.487 718.939 450.486 C 720.325 450.483 721.439 448.994 721.442 447.144 C 721.442 445.309 722.294 443.967 723.331 444.16 C 724.37 444.353 725.121 443.228 725 441.658 C 724.88 440.088 725.69 438.982 726.805 439.201 C 728.054 439.446 728.425 438.542 727.772 436.842 C 727.007 434.845 727.323 434.462 728.925 435.45 C 730.347 436.332 730.733 436.169 730.01 435 C 728.505 432.563 735.767 417.843 737.841 419.125 C 738.739 419.681 738.955 419.295 738.321 418.267 C 737.684 417.239 738.455 412.056 740.033 406.748 C 742.951 396.934 744.463 362.396 741.905 363.977 C 739.813 365.271 740.455 360.424 742.713 357.894 C 744.473 355.92 744.364 355.881 742.018 357.648 C 739.676 359.412 739.069 359.204 738.158 356.332 C 737.563 354.457 737.614 352.049 738.275 350.981 C 739.076 349.684 738.741 349.494 737.265 350.406 C 735.648 351.406 735.349 351.003 736.155 348.909 C 736.776 347.292 736.572 346.466 735.688 347.014 C 733.821 348.166 730.068 341.787 731.37 339.678 C 731.869 338.872 730.075 338.364 727.382 338.551 C 724.69 338.737 722.82 338.351 723.226 337.692 C 723.634 337.034 723.023 336.063 721.871 335.535 C 720.718 335.006 721.653 334.998 723.945 335.518 L 728.115 336.464 L 723.782 333.418 C 721.288 331.665 719.791 329.31 720.257 327.869 C 720.701 326.494 720.469 325.925 719.74 326.603 C 719.011 327.284 717.262 326.909 715.856 325.769 C 714.447 324.631 713.75 324.457 714.302 325.385 C 715.312 327.077 711.205 334.091 709.986 332.752 C 709.63 332.36 708.903 327.535 708.373 322.031 C 707.043 308.261 706.419 305.625 704.335 304.928 C 703.183 304.545 703.433 307.231 705.028 312.346 M 708.932 339.268 C 708.932 343.959 709.445 344.533 713.52 344.385 C 717.328 344.247 717.541 344.034 714.77 343.133 C 712.935 342.537 711.175 340.548 710.858 338.712 C 709.924 333.298 708.932 333.585 708.932 339.268 M 706.356 353.309 C 705.713 356.292 703.433 362.205 701.295 366.451 C 699.154 370.698 697.872 374.638 698.442 375.21 C 699.013 375.78 698.679 376.247 697.697 376.247 C 696.232 376.247 689.26 386.12 688.892 388.718 C 688.834 389.128 686.75 391.599 684.263 394.206 C 669.155 410.049 663.749 416.283 665.119 416.283 C 665.973 416.283 667.234 415.721 667.924 415.032 C 668.611 414.343 670.05 413.781 671.12 413.781 C 672.19 413.781 673.065 412.843 673.065 411.696 C 673.065 410.55 673.817 409.538 674.734 409.445 C 675.651 409.355 677.817 408.524 679.547 407.599 C 681.899 406.339 682.161 405.587 680.584 404.612 C 679.425 403.897 679.002 402.464 679.64 401.428 C 680.279 400.393 681.45 399.946 682.241 400.435 C 683.031 400.924 684.149 400.56 684.727 399.628 C 685.302 398.696 684.95 397.933 683.942 397.933 C 682.762 397.933 682.874 397.099 684.262 395.591 C 685.443 394.302 686.786 393.364 687.246 393.506 C 689.193 394.107 694.746 386.82 694.261 384.302 C 693.97 382.791 695.463 379.942 697.58 377.971 C 699.694 376 701.457 373.868 701.497 373.232 C 701.707 369.819 706.031 359.636 707.013 360.244 C 707.645 360.634 708.239 358.013 708.332 354.42 C 708.541 346.466 707.913 346.113 706.356 353.309 M 572.141 365.314 C 572.141 368.074 584.392 388.876 594.791 403.771 C 605.378 418.939 627.92 445.025 629.271 443.675 C 629.674 443.271 625.929 438.633 620.952 433.366 C 607.976 419.637 590.64 396.138 580.709 378.819 C 575.996 370.6 572.141 364.522 572.141 365.314 M 300.043 392.257 C 301.216 394.677 301.184 396.31 299.931 397.563 C 298.633 398.86 299.006 399.24 301.26 398.908 C 302.986 398.654 305.312 399.645 306.43 401.11 C 307.547 402.574 308.467 403.021 308.47 402.103 C 308.475 401.187 306.198 397.807 303.412 394.596 C 300.626 391.385 299.109 390.332 300.043 392.257 M 309.494 406.206 C 311.379 406.97 315.319 410.326 318.252 413.664 C 321.183 417.004 323.582 419.111 323.582 418.348 C 323.582 415.938 311.04 404.601 308.498 404.711 C 307.057 404.775 307.462 405.383 309.494 406.206 M 653.244 427.763 C 648.175 432.909 645.91 436.332 647.091 437.062 C 648.119 437.697 648.754 437.585 648.503 436.81 C 647.875 434.884 655.268 427.126 657.731 427.126 C 658.825 427.126 659.733 426.376 659.745 425.458 C 659.761 424.541 660.369 422.852 661.095 421.704 C 663.544 417.848 661.31 419.571 653.244 427.763 M 407.106 453.677 C 405.991 455.021 403.82 455.719 402.281 455.229 C 400.324 454.605 400.104 454.786 401.551 455.833 C 403.066 456.928 401.612 459.295 396.129 464.679 C 392.011 468.721 388.641 472.67 388.641 473.452 C 388.641 474.235 393.546 469.85 399.539 463.708 C 405.533 457.564 410.144 452.245 409.787 451.886 C 409.428 451.527 408.222 452.334 407.106 453.677 M 394.306 484.211 C 396.787 489.128 403.013 494.219 404.601 492.629 C 404.964 492.265 402.187 489.014 398.428 485.404 L 391.597 478.84 L 394.306 484.211 M 417.556 507.428 C 417.556 508.849 419.654 511.563 422.217 513.458 C 424.78 515.353 426.52 517.483 426.081 518.193 C 425.645 518.899 425.924 519.873 426.704 520.356 C 427.483 520.838 428.122 520.1 428.122 518.718 C 428.122 517.336 425.984 514.684 423.376 512.826 C 420.765 510.967 419.025 508.806 419.51 508.021 C 419.995 507.237 419.753 506.201 418.973 505.719 C 418.194 505.237 417.556 506.007 417.556 507.428 M 412.83 588.106 C 418.278 593.611 423.108 598.115 423.568 598.115 C 424.026 598.115 419.946 593.611 414.498 588.106 C 409.05 582.601 404.218 578.097 403.76 578.097 C 403.301 578.097 407.382 582.601 412.83 588.106 M 500.927 684.027 C 500.935 689.531 501.246 691.582 501.619 688.583 C 501.989 685.585 501.982 681.082 501.602 678.574 C 501.22 676.068 500.917 678.521 500.927 684.027" stroke="none" fill="#a364fe" fill-rule="evenodd" style=""/>
    <path d="M 260.293 328.375 C 249.669 342.446 242.46 357.927 238.45 375.28 C 235.092 389.809 234.814 394.358 235.607 421.768 C 236.604 456.255 240.981 484.832 251.691 526.783 C 262.386 568.682 285.686 632.777 293.306 641.261 C 294.819 642.946 306.191 647.516 318.577 651.418 C 371.009 667.937 432.323 698.066 471.137 726.382 C 479.455 732.45 483.103 734.262 484.039 732.789 C 484.757 731.659 485.356 714.595 485.369 694.87 C 485.403 648.075 480.779 618.159 468.942 588.553 C 464.563 577.61 453.937 556.41 452.826 556.41 C 452.369 556.41 455.052 562.489 458.787 569.921 C 468.669 589.572 476.437 614.325 480.319 638.54 C 483.067 655.664 483.679 666.662 483.473 695.258 C 483.319 716.733 482.792 726.785 482.136 720.726 C 480.231 703.092 470.515 673.373 459.352 651.028 C 442.535 617.364 418.343 590.131 370.657 551.186 C 295.698 489.97 269.313 462.864 253.141 430.463 C 234.154 392.422 236.562 363.036 261.439 329.174 C 265.335 323.869 268.175 319.529 267.747 319.529 C 267.321 319.529 263.966 323.508 260.293 328.375 M 729.839 335.945 C 753.507 371.537 750.676 407.797 720.968 449.614 C 705.774 471.002 665.664 509.069 613.723 551.405 C 579.348 579.423 554.481 605.782 537.395 632.313 C 521.321 657.269 509.121 689.228 505.549 715.722 C 504.383 724.359 504.145 716.542 504.632 685.695 C 504.994 662.757 505.65 640.987 506.093 637.318 C 506.532 633.647 505.856 636.275 504.589 643.156 C 502.336 655.399 500.939 736.573 502.981 736.573 C 503.479 736.573 505.542 734.994 507.569 733.064 C 509.594 731.134 521.305 722.868 533.593 714.695 C 571.295 689.615 626.404 663.892 674.088 649.116 L 693.459 643.114 L 702.05 622.987 C 721.343 577.795 737.236 523.213 746.696 469.665 C 750.429 448.537 751.282 438.621 751.367 415.449 C 751.478 384.893 749.299 371.63 741.127 353.135 C 737.341 344.571 724.667 324.533 723.036 324.533 C 722.604 324.533 725.666 329.67 729.839 335.945 M 581.317 456.319 C 589.535 464.577 596.635 471.333 597.094 471.333 C 597.552 471.333 591.203 464.577 582.984 456.319 C 574.765 448.062 567.666 441.306 567.207 441.306 C 566.748 441.306 573.097 448.062 581.317 456.319 M 387.293 474.569 C 387.575 475.294 396.065 484.425 406.157 494.861 C 416.25 505.299 422.639 511.593 420.355 508.851 C 414.553 501.879 386.665 472.964 387.293 474.569 M 584.656 488.384 C 578.522 495.009 570.481 504.204 566.789 508.819 C 559.541 517.879 561.92 515.428 584.154 490.935 C 591.442 482.907 597.045 476.338 596.606 476.338 C 596.168 476.338 590.791 481.758 584.656 488.384 M 430.22 523.464 C 434.181 528.74 437.75 533.056 438.156 533.056 C 439.296 533.056 428.321 518.148 425.513 515.881 C 424.143 514.776 426.262 518.187 430.22 523.464 M 543.904 539.68 C 538.498 547.911 530.304 562.36 525.694 571.793 C 517.431 588.695 506.924 620.209 507.248 627.108 C 507.343 629.054 508.11 627.642 508.957 623.971 C 515.432 595.896 530.291 562.165 547.252 537.028 C 551.822 530.255 555.148 524.715 554.645 524.715 C 554.142 524.715 549.306 531.449 543.904 539.68 M 440.787 538.061 C 442.38 540.354 445.201 545.047 447.057 548.487 C 448.913 551.928 450.839 554.742 451.336 554.742 C 452.862 554.742 443.298 538.135 440.51 535.947 C 438.42 534.305 438.476 534.732 440.787 538.061 M 91.216 797.813 C 80.98 822.275 39.991 924.818 39.991 925.962 C 39.991 926.468 46.073 926.663 53.507 926.397 L 67.023 925.913 L 73.206 909.633 C 76.608 900.679 80.153 892.59 81.083 891.659 C 82.137 890.605 94.052 890.14 112.681 890.423 L 142.584 890.88 L 149.515 908.397 L 156.446 925.913 L 170.086 926.399 C 183.62 926.882 183.715 926.856 182.557 923.063 C 181.917 920.96 168.467 888.087 152.669 850.011 L 123.946 780.78 L 111.345 780.297 L 98.746 779.813 L 91.216 797.813 M 630.528 853.347 L 630.528 926.747 L 643.039 926.747 L 655.55 926.747 L 655.55 901.547 L 655.55 876.348 L 670.147 877.457 C 708.815 880.398 732.306 868.503 739.985 842.091 C 745.367 823.577 740.359 804.532 726.934 792.461 C 714.427 781.218 708.25 779.946 666.089 779.946 L 630.528 779.946 L 630.528 853.347 M 874.444 846.554 C 874.899 910.833 875.036 913.326 878.36 917.869 C 882.512 923.544 891.841 928.43 900.825 929.634 C 907.518 930.533 922.473 927.382 924.291 924.688 C 924.831 923.879 924.549 919.554 923.669 915.077 L 922.055 906.933 L 914.335 907.805 C 908.94 908.412 905.611 907.92 903.274 906.169 C 900.058 903.754 899.922 901.425 899.459 841.804 L 898.985 779.946 L 886.481 779.946 L 873.972 779.946 L 874.444 846.554 M 655.55 828.291 L 655.55 857.095 L 675.151 856.392 C 697.662 855.589 705.653 852.782 711.83 843.508 C 717.093 835.607 717.103 821.012 711.851 813.286 C 705.654 804.167 698.713 801.708 675.827 800.531 L 655.55 799.488 L 655.55 828.291 M 100.484 837.086 C 94.761 851.992 89.612 865.505 89.046 867.109 C 88.093 869.796 89.811 870.029 110.71 870.029 C 123.195 870.029 133.41 869.443 133.41 868.727 C 133.41 868.012 129.596 857.689 124.934 845.79 C 120.274 833.889 115.324 820.963 113.935 817.063 C 112.545 813.165 111.292 809.975 111.149 809.978 C 111.006 809.979 106.206 822.178 100.484 837.086 M 425.341 824.044 C 400.637 829.342 384.076 847.744 382.348 871.822 C 380.44 898.416 395.901 921.1 420.378 927.612 C 457.205 937.413 490.866 916.087 493.369 881.369 C 495.299 854.551 481.728 833.46 457.768 826.051 C 445.996 822.409 435.879 821.783 425.341 824.044 M 219.096 825.136 C 204.629 829.328 189.029 845.531 184.963 860.592 C 182.161 870.972 183.825 892.838 188.034 900.889 C 192.857 910.119 204.372 920.853 214.316 925.383 C 221.221 928.53 225.529 929.184 239.339 929.184 C 256.217 929.184 264.92 926.813 274.199 919.687 C 277.274 917.325 277.235 917.02 272.727 908.74 L 268.092 900.222 L 259.553 904.648 C 241.4 914.057 219.617 908.67 211.974 892.879 C 207.881 884.425 207.293 869.419 210.731 861.19 C 214.162 852.976 223.776 845.418 232.442 844.118 C 241.695 842.73 248.93 844.192 258.316 849.342 C 262.331 851.544 265.833 853.347 266.096 853.347 C 266.361 853.347 268.981 849.442 271.917 844.669 L 277.256 835.99 L 272.682 832.341 C 265.327 826.477 252.883 823.305 237.896 823.469 C 230.432 823.553 221.971 824.302 219.096 825.136 M 317.708 826.23 C 302.311 831.727 291.589 842.645 285.981 858.543 C 282.773 867.635 282.881 885.834 286.201 895.578 C 289.347 904.814 301.576 919.011 310.048 923.267 C 319.545 928.036 333.083 930.58 344.21 929.688 C 355.281 928.799 370.049 923.282 374.486 918.378 C 377.078 915.514 376.97 914.841 372.779 907.689 C 370.319 903.491 367.814 900.061 367.213 900.068 C 366.613 900.072 363.869 901.562 361.116 903.377 C 353.314 908.518 340.75 910.774 332.407 908.527 C 308.928 902.204 300.476 870.707 317.432 852.728 C 327.205 842.365 346.908 840.775 359.519 849.333 C 365.886 853.652 368.623 854.347 368.623 851.645 C 368.623 850.709 370.381 847.144 372.531 843.721 C 374.68 840.3 376.111 836.538 375.711 835.362 C 375.31 834.187 371.114 831.231 366.38 828.792 C 354.93 822.889 330.652 821.612 317.708 826.23 M 775.301 825.783 C 770.976 826.974 764.969 829.413 761.955 831.205 C 755.658 834.947 755.396 838.235 760.68 847.193 L 764.155 853.083 L 772.827 849.193 C 783.963 844.197 793.643 842.698 805.334 844.16 C 817.017 845.619 825.705 853.101 825.705 861.701 C 825.705 866.417 825.257 866.943 821.951 866.12 C 811.891 863.618 795.14 863.078 785.268 864.942 C 772.265 867.397 763.416 872.189 756.86 880.33 C 747.601 891.829 749.112 910.455 760.083 920.089 C 774.513 932.759 807.49 933.172 822.114 920.867 C 824.813 918.596 827.382 916.738 827.822 916.738 C 828.265 916.738 829.075 918.99 829.625 921.742 C 830.621 926.722 830.683 926.747 842.122 926.747 L 853.615 926.747 L 852.495 920.491 C 851.88 917.052 851.185 901.098 850.95 885.042 C 850.714 868.986 849.651 852.873 848.585 849.234 C 845.679 839.313 835.059 829.21 824.15 825.992 C 813.194 822.761 786.692 822.647 775.301 825.783 M 507.081 861.478 C 507.081 902.871 508.174 908.41 518.384 918.873 C 525.503 926.167 536.541 930.083 549.978 930.083 C 560.354 930.083 568.163 927.189 577.292 919.957 L 583.818 914.789 L 583.818 920.768 L 583.818 926.747 L 595.732 926.747 L 607.648 926.747 L 606.575 916.493 C 605.986 910.854 605.504 887.958 605.504 865.613 L 605.504 824.988 L 593.116 824.988 L 580.727 824.988 L 580.189 858.847 C 579.569 897.643 578.958 899.634 565.916 905.403 C 557.304 909.212 547.996 908.781 541.076 904.246 C 533.278 899.137 532.106 893.033 532.106 857.571 L 532.106 824.988 L 519.594 824.988 L 507.081 824.988 L 507.081 861.478 M 424.507 846.476 C 416.33 850.231 412.373 854.516 409.408 862.829 C 402.281 882.808 412.411 904.343 430.879 908.475 C 452.373 913.286 468.641 899.597 468.641 876.701 C 468.641 866.707 464.666 856.094 459.05 851.103 C 450.523 843.521 435.363 841.49 424.507 846.476 M 785.67 884.629 C 778.349 888.285 774.563 895.49 777.071 900.99 C 780.051 907.534 786.573 910.61 797.253 910.51 C 813.668 910.355 825.705 902.068 825.705 890.919 C 825.705 886.155 825.002 885.359 819.255 883.638 C 809.498 880.715 792.499 881.216 785.67 884.629" stroke="none" fill="#6a34ca" fill-rule="evenodd" style=""/>
  </g>
</svg>